<?xml version="1.0" encoding="UTF-8" standalone="no"?>
<!DOCTYPE svg PUBLIC "-//W3C//DTD SVG 1.0//EN" "http://www.w3.org/TR/2001/PR-SVG-20010719/DTD/svg10.dtd">
<svg width="13cm" height="10cm" viewBox="368 253 259 192" xmlns="http://www.w3.org/2000/svg" xmlns:xlink="http://www.w3.org/1999/xlink">
  <g>
    <rect style="fill: #ffffff" x="392" y="255" width="210.2" height="28"/>
    <rect style="fill: none; fill-opacity:0; stroke-width: 2; stroke: #000000" x="392" y="255" width="210.2" height="28"/>
    <text font-size="16" style="fill: #000000;text-anchor:middle;font-family:sans-serif;font-style:normal;font-weight:700" x="497.1" y="274">SomeClass</text>
    <rect style="fill: #ffffff" x="392" y="283" width="210.2" height="20"/>
    <rect style="fill: none; fill-opacity:0; stroke-width: 2; stroke: #000000" x="392" y="283" width="210.2" height="20"/>
    <text font-size="12.8" style="fill: #000000;text-anchor:start;font-family:monospace;font-style:normal;font-weight:normal" x="395" y="297">-$logger: Logger</text>
    <rect style="fill: #ffffff" x="392" y="303" width="210.2" height="20"/>
    <rect style="fill: none; fill-opacity:0; stroke-width: 2; stroke: #000000" x="392" y="303" width="210.2" height="20"/>
    <text font-size="12.8" style="fill: #000000;text-anchor:start;font-family:monospace;font-style:normal;font-weight:normal" x="395" y="317">+setLogger($logger:Logger)</text>
  </g>
  <g>
    <rect style="fill: #ffffff" x="369" y="396" width="256.4" height="28"/>
    <rect style="fill: none; fill-opacity:0; stroke-width: 2; stroke: #000000" x="369" y="396" width="256.4" height="28"/>
    <text font-size="16" style="fill: #000000;text-anchor:middle;font-family:sans-serif;font-style:normal;font-weight:700" x="497.2" y="415">Logger</text>
    <rect style="fill: #ffffff" x="369" y="424" width="256.4" height="20"/>
    <rect style="fill: none; fill-opacity:0; stroke-width: 2; stroke: #000000" x="369" y="424" width="256.4" height="20"/>
    <text font-size="12.8" style="fill: #000000;text-anchor:start;font-family:monospace;font-style:normal;font-weight:normal" x="372" y="438">+log($level:int,$message:string)</text>
  </g>
  <g>
    <polyline style="fill: none; fill-opacity:0; stroke-width: 2; stroke: #000000" points="497.1,349.18 497.1,366.501 497.2,366.501 497.2,394.994 "/>
    <polygon style="fill: #000000" points="497.1,324.009 501.9,338.009 497.1,352.009 492.3,338.009 "/>
    <polygon style="fill: none; fill-opacity:0; stroke-width: 2; stroke: #000000" points="497.1,324.009 501.9,338.009 497.1,352.009 492.3,338.009 "/>
  </g>
</svg>
